<?xml version="1.0" encoding="UTF-8" standalone="no"?><!DOCTYPE svg PUBLIC "-//W3C//DTD SVG 1.1//EN" "http://www.w3.org/Graphics/SVG/1.1/DTD/svg11.dtd"><svg width="100%" height="100%" viewBox="0 0 596 842" version="1.1" xmlns="http://www.w3.org/2000/svg" xmlns:xlink="http://www.w3.org/1999/xlink" xml:space="preserve" style="fill-rule:evenodd;clip-rule:evenodd;stroke-linecap:round;stroke-linejoin:round;stroke-miterlimit:1.5;"><g id="Money"><path d="M449.52,275.973c0,-12.272 -9.964,-22.236 -22.236,-22.236l-270.434,0c-12.273,0 -22.236,9.964 -22.236,22.236l0,94.503c0,12.272 9.963,22.236 22.236,22.236l270.434,0c12.272,0 22.236,-9.964 22.236,-22.236l0,-94.503Z" style="fill:#00e676;stroke:#333949;stroke-width:4.75px;"/><path d="M449.52,267.196c0,-12.272 -9.964,-22.236 -22.236,-22.236l-270.434,0c-12.273,0 -22.236,9.964 -22.236,22.236l0,94.503c0,12.272 9.963,22.235 22.236,22.235l270.434,0c12.272,0 22.236,-9.963 22.236,-22.235l0,-94.503Z" style="fill:#00e676;stroke:#333949;stroke-width:4.75px;"/><path d="M449.52,256.956c0,-12.273 -9.964,-22.236 -22.236,-22.236l-270.434,0c-12.273,0 -22.236,9.963 -22.236,22.236l0,94.502c0,12.273 9.963,22.236 22.236,22.236l270.434,0c12.272,0 22.236,-9.963 22.236,-22.236l0,-94.502Z" style="fill:#00e676;stroke:#333949;stroke-width:4.75px;"/><path d="M449.52,246.716c0,-12.273 -9.964,-22.236 -22.236,-22.236l-270.434,0c-12.273,0 -22.236,9.963 -22.236,22.236l0,94.502c0,12.272 9.963,22.236 22.236,22.236l270.434,0c12.272,0 22.236,-9.964 22.236,-22.236l0,-94.502Z" style="fill:#00e676;stroke:#333949;stroke-width:4.75px;"/><path d="M449.52,237.938c0,-12.272 -9.964,-22.236 -22.236,-22.236l-270.434,0c-12.273,0 -22.236,9.964 -22.236,22.236l0,94.503c0,12.272 9.963,22.236 22.236,22.236l270.434,0c12.272,0 22.236,-9.964 22.236,-22.236l0,-94.503Z" style="fill:#00e676;stroke:#333949;stroke-width:4.75px;"/><path d="M449.52,227.698c0,-12.272 -9.964,-22.236 -22.236,-22.236l-270.434,0c-12.273,0 -22.236,9.964 -22.236,22.236l0,94.503c0,12.272 9.963,22.235 22.236,22.235l270.434,0c12.272,0 22.236,-9.963 22.236,-22.235l0,-94.503Z" style="fill:#00e676;stroke:#333949;stroke-width:4.75px;"/><path d="M449.52,217.458c0,-12.273 -9.964,-22.236 -22.236,-22.236l-270.434,0c-12.273,0 -22.236,9.963 -22.236,22.236l0,94.502c0,12.273 9.963,22.236 22.236,22.236l270.434,0c12.272,0 22.236,-9.963 22.236,-22.236l0,-94.502Z" style="fill:#00e676;stroke:#333949;stroke-width:4.75px;"/><path d="M449.52,208.68c0,-12.272 -9.964,-22.235 -22.236,-22.235l-270.434,0c-12.273,0 -22.236,9.963 -22.236,22.235l0,94.503c0,12.272 9.963,22.236 22.236,22.236l270.434,0c12.272,0 22.236,-9.964 22.236,-22.236l0,-94.503Z" style="fill:#00e676;stroke:#333949;stroke-width:4.75px;"/><path d="M449.52,198.44c0,-12.272 -9.964,-22.236 -22.236,-22.236l-270.434,0c-12.273,0 -22.236,9.964 -22.236,22.236l0,94.503c0,12.272 9.963,22.236 22.236,22.236l270.434,0c12.272,0 22.236,-9.964 22.236,-22.236l0,-94.503Z" style="fill:#00e676;stroke:#333949;stroke-width:4.75px;"/><path d="M449.52,188.2c0,-12.272 -9.964,-22.236 -22.236,-22.236l-270.434,0c-12.273,0 -22.236,9.964 -22.236,22.236l0,94.503c0,12.272 9.963,22.235 22.236,22.235l270.434,0c12.272,0 22.236,-9.963 22.236,-22.235l0,-94.503Z" style="fill:#00e676;stroke:#333949;stroke-width:4.75px;"/><path d="M358.923,286.238l-141.451,0l0,105.46c0,7.194 5.841,13.034 13.035,13.034l115.382,0c7.194,0 13.034,-5.84 13.034,-13.034l0,-105.46Z" style="fill:#cccedb;"/><path d="M243.055,191.462c0,-1.903 -1.545,-3.448 -3.449,-3.448l-70.061,0c-1.903,0 -3.448,1.545 -3.448,3.448l0,6.897c0,1.903 1.545,3.448 3.448,3.448l70.061,0c1.904,0 3.449,-1.545 3.449,-3.448l0,-6.897Z" style="fill:#0ac56d;"/><path d="M419.997,271.267c0,-1.903 -1.545,-3.448 -3.449,-3.448l-77.938,0c-1.903,0 -3.448,1.545 -3.448,3.448l0,6.897c0,1.903 1.545,3.448 3.448,3.448l77.938,0c1.904,0 3.449,-1.545 3.449,-3.448l0,-6.897Z" style="fill:#0ac56d;"/><path d="M358.923,166.656c0,-8.385 -6.807,-15.192 -15.191,-15.192l-111.068,0c-8.385,0 -15.192,6.807 -15.192,15.192l0,122.913l141.451,0l0,-122.913Z" style="fill:#f3f3ff;"/><rect x="241.498" y="152.766" width="8.02" height="249.377" style="fill:url(#_Linear1);"/><rect x="324.379" y="152.766" width="8.02" height="249.377" style="fill:url(#_Linear2);"/><path d="M358.923,167.024c0,-8.588 -6.972,-15.56 -15.559,-15.56l-110.332,0c-8.588,0 -15.56,6.972 -15.56,15.56l0,222.148c0,8.588 6.972,15.56 15.56,15.56l110.332,0c8.587,0 15.559,-6.972 15.559,-15.56l0,-222.148Z" style="fill:#f3f3ff;fill-opacity:0;stroke:#333949;stroke-width:4.75px;stroke-linecap:square;stroke-linejoin:bevel;"/><path d="M358.923,167.024c0,-8.588 -6.972,-15.56 -15.559,-15.56l-110.332,0c-8.588,0 -15.56,6.972 -15.56,15.56l0,222.148c0,8.588 6.972,15.56 15.56,15.56l110.332,0c8.587,0 15.559,-6.972 15.559,-15.56l0,-222.148Z" style="fill:#f3f3ff;fill-opacity:0;stroke:#333949;stroke-width:4.75px;stroke-linecap:square;stroke-linejoin:bevel;"/><text x="261.017px" y="247.968px" style="font-family:'ArialMT', 'Arial', sans-serif;font-size:78.227px;fill:#333949;">$</text><ellipse cx="178.974" cy="232.473" rx="17.119" ry="13.917" style="fill:#0ac56d;"/><ellipse cx="403.181" cy="232.473" rx="17.119" ry="13.917" style="fill:#0ac56d;"/></g><defs><linearGradient id="_Linear1" x1="0" y1="0" x2="1" y2="0" gradientUnits="userSpaceOnUse" gradientTransform="matrix(-0.562207,85.6412,-105.345,-0.45705,250.08,110.788)"><stop offset="0%" style="stop-color:#fff;stop-opacity:1"/><stop offset="100%" style="stop-color:#b9becb;stop-opacity:1"/></linearGradient><linearGradient id="_Linear2" x1="0" y1="0" x2="1" y2="0" gradientUnits="userSpaceOnUse" gradientTransform="matrix(-0.562207,85.6412,-105.345,-0.45705,332.961,110.788)"><stop offset="0%" style="stop-color:#fff;stop-opacity:1"/><stop offset="100%" style="stop-color:#b9becb;stop-opacity:1"/></linearGradient></defs></svg>